<svg width="1200" height="720" viewBox="0 0 1200 720" xmlns="http://www.w3.org/2000/svg">
  <defs>
    <linearGradient id="gBg" x1="0" y1="0" x2="1" y2="1">
      <stop offset="0" stop-color="#0b1224"/>
      <stop offset="1" stop-color="#10192f"/>
    </linearGradient>
    <linearGradient id="gPhone" x1="0" y1="0" x2="1" y2="1">
      <stop offset="0" stop-color="#6366f1"/>
      <stop offset="1" stop-color="#8b5cf6"/>
    </linearGradient>
  </defs>
  <rect width="1200" height="720" fill="url(#gBg)"/>
  <rect x="340" y="140" width="240" height="440" rx="36" fill="url(#gPhone)" opacity="0.85" stroke="#c7d2fe" stroke-opacity="0.5" stroke-width="4"/>
  <rect x="360" y="180" width="200" height="360" rx="24" fill="#0b1022" opacity="0.85"/>
  <rect x="380" y="220" width="160" height="80" rx="14" fill="#1f2937" stroke="#c7d2fe" stroke-opacity="0.4" stroke-width="2"/>
  <rect x="380" y="320" width="160" height="48" rx="12" fill="#4338ca" opacity="0.9"/>
  <rect x="380" y="380" width="160" height="32" rx="10" fill="#111827"/>
  <rect x="380" y="430" width="160" height="32" rx="10" fill="#111827"/>
  <circle cx="460" cy="184" r="10" fill="#c7d2fe"/>
  <rect x="640" y="180" width="220" height="120" rx="18" fill="#111827" stroke="#c7d2fe" stroke-opacity="0.35" stroke-width="3"/>
  <rect x="640" y="330" width="260" height="200" rx="22" fill="#111827" stroke="#f97316" stroke-opacity="0.35" stroke-width="3"/>
  <rect x="700" y="370" width="140" height="80" rx="16" fill="#1f2937"/>
  <rect x="720" y="385" width="100" height="20" rx="10" fill="#f97316"/>
  <rect x="700" y="470" width="60" height="22" rx="10" fill="#10b981"/>
  <rect x="780" y="470" width="60" height="22" rx="10" fill="#eab308"/>
  <text x="620" y="160" fill="#e0e7ff" font-family="Space Grotesk, 'Segoe UI', sans-serif" font-size="50" font-weight="700">Tixly Mobile UX</text>
  <text x="620" y="202" fill="#cbd5e1" font-family="Space Grotesk, 'Segoe UI', sans-serif" font-size="22" font-weight="500">Ticketing flows · Microservices blueprint · UI/UX</text>
  <rect x="640" y="260" width="40" height="18" rx="9" fill="#22d3ee" opacity="0.8"/>
  <rect x="690" y="260" width="60" height="18" rx="9" fill="#f97316" opacity="0.8"/>
  <rect x="760" y="260" width="40" height="18" rx="9" fill="#10b981" opacity="0.8"/>
</svg>
